<svg width="36" height="36" viewBox="0 0 36 36" fill="none" xmlns="http://www.w3.org/2000/svg">
<g clip-path="url(#clip0_499_8914)">
<path d="M34.53 13.1851C33.645 12.3751 32.49 11.9701 31.275 12.0151C30.075 12.0751 28.965 12.6001 28.14 13.4851L23.31 18.7801C22.485 17.4151 20.985 16.5001 19.275 16.5001H6C2.685 16.5001 0 19.1851 0 22.5001V30.0001C0 33.3151 2.685 36.0001 6 36.0001H13.44C17.715 36.0001 21.795 34.1701 24.645 30.9751L34.86 19.5151C36.495 17.6701 36.345 14.8351 34.53 13.1701V13.1851ZM32.625 17.5351L22.41 28.9951C20.13 31.5451 16.875 33.0151 13.455 33.0151H6C4.35 33.0151 3 31.6651 3 30.0151V22.5151C3 20.8651 4.35 19.5151 6 19.5151H19.29C20.235 19.5151 21 20.2801 21 21.2251C21 22.0651 20.37 22.8001 19.53 22.9201L11.79 24.0301C10.965 24.1501 10.395 24.9001 10.515 25.7251C10.635 26.5501 11.4 27.1201 12.21 27.0001L19.95 25.8901C21.72 25.6351 23.145 24.4051 23.715 22.8001L30.36 15.5101C30.63 15.2101 31.005 15.0301 31.41 15.0151C31.815 15.0151 32.205 15.1351 32.505 15.4051C33.12 15.9601 33.165 16.9201 32.61 17.5351H32.625Z" fill="white"/>
<path d="M13.4999 15.0004H14.0699C16.2449 15.0004 17.9999 13.2304 17.9999 11.0704C17.9999 9.13535 16.6199 7.50035 14.7149 7.18535L9.79495 6.36035C9.34495 6.28535 9.01495 5.89535 9.01495 5.43035C9.01495 4.92035 9.43495 4.50035 9.94495 4.50035H13.9049C14.4449 4.50035 14.9399 4.78535 15.2099 5.25035C15.6149 5.97035 16.5299 6.21035 17.2649 5.79035C17.9849 5.37035 18.2249 4.45535 17.8049 3.73535C17.0099 2.35535 15.5099 1.48535 13.9049 1.48535H13.4999C13.4999 0.660352 12.8249 -0.0146484 11.9999 -0.0146484C11.1749 -0.0146484 10.4999 0.660352 10.4999 1.48535H9.92995C7.75495 1.48535 5.99995 3.25535 5.99995 5.41535C5.99995 7.35035 7.37995 8.98535 9.28495 9.30035L14.2049 10.1254C14.6549 10.2004 14.9849 10.5904 14.9849 11.0554C14.9849 11.5654 14.5649 11.9854 14.0549 11.9854H10.0949C9.55495 11.9854 9.05995 11.7004 8.78995 11.2354C8.36995 10.5154 7.45495 10.2754 6.73495 10.6954C6.01495 11.1154 5.77495 12.0304 6.19495 12.7504C6.98995 14.1304 8.48995 15.0004 10.0949 15.0004H10.4999C10.4999 15.8254 11.1749 16.5004 11.9999 16.5004C12.8249 16.5004 13.4999 15.8254 13.4999 15.0004Z" fill="white"/>
</g>
<defs>
<clipPath id="clip0_499_8914">
<rect width="36" height="36" fill="white"/>
</clipPath>
</defs>
</svg>
