<svg width="36" height="36" viewBox="0 0 36 36" fill="none" xmlns="http://www.w3.org/2000/svg">
<g clip-path="url(#clip0_499_8909)">
<path d="M28.5 6H26.8485C26.151 2.5815 23.121 0 19.5 0H7.5C3.3645 0 0 3.3645 0 7.5V26.781C0 27.972 0.6525 29.061 1.701 29.622C2.178 29.8785 2.7015 30.0045 3.2235 30.0045C3.8475 30.0045 4.47 29.823 5.0085 29.4645L9.4335 26.514C10.47 29.4165 13.245 31.5 16.5 31.5H25.0455L30.9915 35.4645C31.5315 35.8245 32.1525 36.006 32.7765 36.006C33.2985 36.006 33.8205 35.8785 34.299 35.622C35.349 35.061 36 33.972 36 32.781V13.5C36 9.3645 32.6355 6 28.5 6ZM3.345 26.9685C3.3165 26.9865 3.2325 27.0405 3.117 26.979C2.9985 26.916 2.9985 26.8155 2.9985 26.7825V7.5C2.9985 5.019 5.0175 3 7.4985 3H19.4985C21.9795 3 23.9985 5.019 23.9985 7.5V18C23.9985 20.481 21.9795 22.5 19.4985 22.5H10.4985C10.008 22.5 9.687 22.7385 9.651 22.7625L3.345 26.9685ZM33 32.7825C33 32.814 33 32.916 32.8815 32.979C32.763 33.0405 32.682 32.9865 32.655 32.9685L26.3325 28.752C26.0865 28.5885 25.797 28.5 25.5 28.5H16.5C14.544 28.5 12.8775 27.246 12.258 25.5H19.5C23.6355 25.5 27 22.1355 27 18V9H28.5C30.981 9 33 11.019 33 13.5V32.7825Z" fill="white"/>
</g>
<defs>
<clipPath id="clip0_499_8909">
<rect width="36" height="36" fill="white"/>
</clipPath>
</defs>
</svg>
