<svg width="21" height="22" viewBox="0 0 21 22" fill="none" xmlns="http://www.w3.org/2000/svg">
<g clip-path="url(#clip0_499_9483)">
<path d="M19.9964 1.5047C19.4015 0.910751 18.5953 0.577148 17.7546 0.577148C16.914 0.577148 16.1078 0.910751 15.5129 1.5047L1.28189 15.7357C0.874358 16.1409 0.55123 16.623 0.331199 17.1539C0.111168 17.6848 -0.00139823 18.2541 1.31086e-05 18.8288V20.6252C1.31086e-05 20.8573 0.0922004 21.0798 0.256295 21.2439C0.420389 21.408 0.642949 21.5002 0.875013 21.5002H2.67139C3.24606 21.5018 3.81534 21.3894 4.34627 21.1696C4.87721 20.9497 5.35926 20.6267 5.76451 20.2192L19.9964 5.98733C20.5901 5.3925 20.9235 4.58642 20.9235 3.74602C20.9235 2.90561 20.5901 2.09953 19.9964 1.5047ZM4.52726 18.982C4.03377 19.4722 3.36698 19.7482 2.67139 19.7502H1.75001V18.8288C1.74913 18.484 1.81665 18.1424 1.94867 17.8238C2.08069 17.5053 2.27459 17.2161 2.51914 16.973L13.3193 6.17283L15.3318 8.18533L4.52726 18.982ZM18.7583 4.75008L16.5655 6.9437L14.553 4.93558L16.7466 2.74195C16.8788 2.6101 17.0356 2.50556 17.2081 2.43431C17.3807 2.36306 17.5656 2.32649 17.7522 2.3267C17.9389 2.3269 18.1237 2.36387 18.2961 2.4355C18.4685 2.50712 18.6251 2.612 18.757 2.74414C18.8888 2.87628 18.9933 3.0331 19.0646 3.20565C19.1358 3.37819 19.1724 3.56308 19.1722 3.74975C19.172 3.93643 19.135 4.12123 19.0634 4.29362C18.9918 4.46601 18.8869 4.6226 18.7548 4.75445L18.7583 4.75008Z" fill="#374957"/>
</g>
<defs>
<clipPath id="clip0_499_9483">
<rect width="21" height="21" fill="white" transform="translate(0 0.5)"/>
</clipPath>
</defs>
</svg>
