<svg width="44" height="44" viewBox="0 0 44 44" fill="none" xmlns="http://www.w3.org/2000/svg">
<circle cx="22" cy="22" r="21.5" fill="#FFBC39" stroke="#E9AA30"/>
<path d="M14 27.0058H18.24C18.3716 27.0066 18.5021 26.9813 18.6239 26.9316C18.7457 26.8818 18.8566 26.8085 18.95 26.7158L25.87 19.7858L28.71 17.0058C28.8037 16.9128 28.8781 16.8022 28.9289 16.6804C28.9797 16.5585 29.0058 16.4278 29.0058 16.2958C29.0058 16.1638 28.9797 16.0331 28.9289 15.9112C28.8781 15.7894 28.8037 15.6788 28.71 15.5858L24.47 11.2958C24.377 11.2021 24.2664 11.1277 24.1446 11.0769C24.0227 11.0261 23.892 11 23.76 11C23.628 11 23.4973 11.0261 23.3754 11.0769C23.2536 11.1277 23.143 11.2021 23.05 11.2958L20.23 14.1258L13.29 21.0558C13.1973 21.1492 13.124 21.2601 13.0742 21.3819C13.0245 21.5037 12.9992 21.6342 13 21.7658V26.0058C13 26.271 13.1054 26.5254 13.2929 26.7129C13.4804 26.9004 13.7348 27.0058 14 27.0058ZM23.76 13.4158L26.59 16.2458L25.17 17.6658L22.34 14.8358L23.76 13.4158ZM15 22.1758L20.93 16.2458L23.76 19.0758L17.83 25.0058H15V22.1758ZM30 29.0058H12C11.7348 29.0058 11.4804 29.1112 11.2929 29.2987C11.1054 29.4862 11 29.7406 11 30.0058C11 30.271 11.1054 30.5254 11.2929 30.7129C11.4804 30.9004 11.7348 31.0058 12 31.0058H30C30.2652 31.0058 30.5196 30.9004 30.7071 30.7129C30.8946 30.5254 31 30.271 31 30.0058C31 29.7406 30.8946 29.4862 30.7071 29.2987C30.5196 29.1112 30.2652 29.0058 30 29.0058Z" fill="white"/>
</svg>
