<svg width="36" height="36" viewBox="0 0 36 36" fill="none" xmlns="http://www.w3.org/2000/svg">
<g id="hand-holding-usd 1" clip-path="url(#clip0_242_1471)">
<path id="Vector" d="M34.53 13.1851C33.645 12.3751 32.49 11.9701 31.275 12.0151C30.075 12.0751 28.965 12.6001 28.14 13.4851L23.31 18.7801C22.485 17.4151 20.985 16.5001 19.275 16.5001H6C2.685 16.5001 0 19.1851 0 22.5001V30.0001C0 33.3151 2.685 36.0001 6 36.0001H13.44C17.715 36.0001 21.795 34.1701 24.645 30.9751L34.86 19.5151C36.495 17.6701 36.345 14.8351 34.53 13.1701V13.1851ZM32.625 17.5351L22.41 28.9951C20.13 31.5451 16.875 33.0151 13.455 33.0151H6C4.35 33.0151 3 31.6651 3 30.0151V22.5151C3 20.8651 4.35 19.5151 6 19.5151H19.29C20.235 19.5151 21 20.2801 21 21.2251C21 22.0651 20.37 22.8001 19.53 22.9201L11.79 24.0301C10.965 24.1501 10.395 24.9001 10.515 25.7251C10.635 26.5501 11.4 27.1201 12.21 27.0001L19.95 25.8901C21.72 25.6351 23.145 24.4051 23.715 22.8001L30.36 15.5101C30.63 15.2101 31.005 15.0301 31.41 15.0151C31.815 15.0151 32.205 15.1351 32.505 15.4051C33.12 15.9601 33.165 16.9201 32.61 17.5351H32.625Z" fill="white"/>
<path id="Vector_2" d="M13.4999 14.9994H14.0699C16.2449 14.9994 17.9999 13.2294 17.9999 11.0694C17.9999 9.13437 16.6199 7.49937 14.7149 7.18437L9.79495 6.35937C9.34495 6.28437 9.01495 5.89437 9.01495 5.42937C9.01495 4.91937 9.43495 4.49937 9.94495 4.49937H13.9049C14.4449 4.49937 14.9399 4.78437 15.2099 5.24937C15.6149 5.96937 16.5299 6.20937 17.2649 5.78937C17.9849 5.36937 18.2249 4.45437 17.8049 3.73437C17.0099 2.35437 15.5099 1.48437 13.9049 1.48437H13.4999C13.4999 0.659375 12.8249 -0.015625 11.9999 -0.015625C11.1749 -0.015625 10.4999 0.659375 10.4999 1.48437H9.92995C7.75495 1.48437 5.99995 3.25437 5.99995 5.41437C5.99995 7.34937 7.37995 8.98437 9.28495 9.29937L14.2049 10.1244C14.6549 10.1994 14.9849 10.5894 14.9849 11.0544C14.9849 11.5644 14.5649 11.9844 14.0549 11.9844H10.0949C9.55495 11.9844 9.05995 11.6994 8.78995 11.2344C8.36995 10.5144 7.45495 10.2744 6.73495 10.6944C6.01495 11.1144 5.77495 12.0294 6.19495 12.7494C6.98995 14.1294 8.48995 14.9994 10.0949 14.9994H10.4999C10.4999 15.8244 11.1749 16.4994 11.9999 16.4994C12.8249 16.4994 13.4999 15.8244 13.4999 14.9994Z" fill="white"/>
</g>
<defs>
<clipPath id="clip0_242_1471">
<rect width="36" height="36" fill="white"/>
</clipPath>
</defs>
</svg>
