<svg width="22" height="23" viewBox="0 0 22 23" fill="none" xmlns="http://www.w3.org/2000/svg">
<g id="share">
<path id="icon" d="M16.0001 20.4443C15.2593 20.4443 14.6297 20.185 14.1112 19.6665C13.5927 19.148 13.3334 18.5184 13.3334 17.7776C13.3334 17.6739 13.3408 17.5665 13.3556 17.4554C13.3705 17.3443 13.3927 17.2443 13.4223 17.1554L7.15564 13.5109C6.90379 13.7332 6.6223 13.9072 6.31119 14.0332C6.00008 14.1591 5.67416 14.2221 5.33342 14.2221C4.59267 14.2221 3.96304 13.9628 3.44453 13.4443C2.92601 12.9258 2.66675 12.2961 2.66675 11.5554C2.66675 10.8147 2.92601 10.185 3.44453 9.6665C3.96304 9.14799 4.59267 8.88873 5.33342 8.88873C5.67416 8.88873 6.00008 8.95169 6.31119 9.07762C6.6223 9.20354 6.90379 9.37762 7.15564 9.59984L13.4223 5.95539C13.3927 5.8665 13.3705 5.7665 13.3556 5.65539C13.3408 5.54428 13.3334 5.43687 13.3334 5.33317C13.3334 4.59243 13.5927 3.9628 14.1112 3.44428C14.6297 2.92576 15.2593 2.6665 16.0001 2.6665C16.7408 2.6665 17.3705 2.92576 17.889 3.44428C18.4075 3.9628 18.6667 4.59243 18.6667 5.33317C18.6667 6.07391 18.4075 6.70354 17.889 7.22206C17.3705 7.74058 16.7408 7.99984 16.0001 7.99984C15.6593 7.99984 15.3334 7.93687 15.0223 7.81095C14.7112 7.68502 14.4297 7.51095 14.1779 7.28873L7.91119 10.9332C7.94082 11.0221 7.96305 11.1221 7.97786 11.2332C7.99267 11.3443 8.00008 11.4517 8.00008 11.5554C8.00008 11.6591 7.99267 11.7665 7.97786 11.8776C7.96305 11.9887 7.94082 12.0887 7.91119 12.1776L14.1779 15.8221C14.4297 15.5998 14.7112 15.4258 15.0223 15.2998C15.3334 15.1739 15.6593 15.1109 16.0001 15.1109C16.7408 15.1109 17.3705 15.3702 17.889 15.8887C18.4075 16.4072 18.6667 17.0369 18.6667 17.7776C18.6667 18.5184 18.4075 19.148 17.889 19.6665C17.3705 20.185 16.7408 20.4443 16.0001 20.4443ZM16.0001 6.22206C16.2519 6.22206 16.463 6.13687 16.6334 5.9665C16.8038 5.79613 16.889 5.58502 16.889 5.33317C16.889 5.08132 16.8038 4.87021 16.6334 4.69984C16.463 4.52947 16.2519 4.44428 16.0001 4.44428C15.7482 4.44428 15.5371 4.52947 15.3667 4.69984C15.1964 4.87021 15.1112 5.08132 15.1112 5.33317C15.1112 5.58502 15.1964 5.79613 15.3667 5.9665C15.5371 6.13687 15.7482 6.22206 16.0001 6.22206ZM5.33342 12.4443C5.58527 12.4443 5.79638 12.3591 5.96675 12.1887C6.13712 12.0184 6.2223 11.8072 6.2223 11.5554C6.2223 11.3035 6.13712 11.0924 5.96675 10.9221C5.79638 10.7517 5.58527 10.6665 5.33342 10.6665C5.08156 10.6665 4.87045 10.7517 4.70008 10.9221C4.52971 11.0924 4.44453 11.3035 4.44453 11.5554C4.44453 11.8072 4.52971 12.0184 4.70008 12.1887C4.87045 12.3591 5.08156 12.4443 5.33342 12.4443ZM16.0001 18.6665C16.2519 18.6665 16.463 18.5813 16.6334 18.4109C16.8038 18.2406 16.889 18.0295 16.889 17.7776C16.889 17.5258 16.8038 17.3147 16.6334 17.1443C16.463 16.9739 16.2519 16.8887 16.0001 16.8887C15.7482 16.8887 15.5371 16.9739 15.3667 17.1443C15.1964 17.3147 15.1112 17.5258 15.1112 17.7776C15.1112 18.0295 15.1964 18.2406 15.3667 18.4109C15.5371 18.5813 15.7482 18.6665 16.0001 18.6665Z" fill="#79747E"/>
</g>
</svg>
