<svg width="21" height="22" viewBox="0 0 21 22" fill="none" xmlns="http://www.w3.org/2000/svg">
<g clip-path="url(#clip0_499_9484)">
<path d="M19.25 4H14.875V2.25C14.875 1.78587 14.6906 1.34075 14.3624 1.01256C14.0342 0.684374 13.5891 0.5 13.125 0.5H7.875C7.41087 0.5 6.96575 0.684374 6.63756 1.01256C6.30937 1.34075 6.125 1.78587 6.125 2.25V4H1.75V5.75H3.5V18.875C3.5 19.5712 3.77656 20.2389 4.26884 20.7312C4.76113 21.2234 5.42881 21.5 6.125 21.5H14.875C15.5712 21.5 16.2389 21.2234 16.7312 20.7312C17.2234 20.2389 17.5 19.5712 17.5 18.875V5.75H19.25V4ZM7.875 2.25H13.125V4H7.875V2.25ZM15.75 18.875C15.75 19.1071 15.6578 19.3296 15.4937 19.4937C15.3296 19.6578 15.1071 19.75 14.875 19.75H6.125C5.89294 19.75 5.67038 19.6578 5.50628 19.4937C5.34219 19.3296 5.25 19.1071 5.25 18.875V5.75H15.75V18.875Z" fill="#374957"/>
<path d="M9.625 9.24902H7.875V16.249H9.625V9.24902Z" fill="#374957"/>
<path d="M13.125 9.24902H11.375V16.249H13.125V9.24902Z" fill="#374957"/>
</g>
<defs>
<clipPath id="clip0_499_9484">
<rect width="21" height="21" fill="white" transform="translate(0 0.5)"/>
</clipPath>
</defs>
</svg>
