<svg width="19" height="20" viewBox="0 0 19 20" fill="none" xmlns="http://www.w3.org/2000/svg">
<path id="Vector" fill-rule="evenodd" clip-rule="evenodd" d="M9.5 11C12.0291 11 14.3292 11.694 16.0212 12.672C16.8657 13.16 17.5877 13.736 18.1091 14.362C18.6221 14.977 19 15.713 19 16.5C19 17.345 18.5662 18.011 17.9413 18.486C17.3502 18.936 16.5701 19.234 15.7415 19.442C14.0758 19.859 11.8528 20 9.5 20C7.14717 20 4.92417 19.86 3.2585 19.442C2.42989 19.234 1.64983 18.936 1.05872 18.486C0.432778 18.01 0 17.345 0 16.5C0 15.713 0.377889 14.977 0.890889 14.361C1.41233 13.736 2.13328 13.161 2.97878 12.671C4.67083 11.695 6.97194 11 9.5 11ZM9.5 13C7.36461 13 5.4435 13.59 4.07867 14.379C3.39572 14.773 2.88061 15.201 2.54811 15.601C2.20611 16.011 2.11111 16.321 2.11111 16.5C2.11111 16.622 2.15017 16.751 2.38028 16.926C2.64311 17.126 3.10017 17.333 3.79894 17.508C5.19017 17.858 7.18939 18 9.5 18C11.8117 18 13.8098 17.857 15.2 17.508C15.8998 17.333 16.3569 17.126 16.6197 16.926C16.8498 16.751 16.8889 16.622 16.8889 16.5C16.8889 16.32 16.7939 16.011 16.4529 15.601C16.1194 15.201 15.6043 14.773 14.9213 14.379C13.5565 13.589 11.6354 13 9.5 13ZM9.5 0C10.8998 0 12.2422 0.526784 13.232 1.46447C14.2217 2.40215 14.7778 3.67392 14.7778 5C14.7778 6.32608 14.2217 7.59785 13.232 8.53553C12.2422 9.47322 10.8998 10 9.5 10C8.10025 10 6.75782 9.47322 5.76805 8.53553C4.77827 7.59785 4.22222 6.32608 4.22222 5C4.22222 3.67392 4.77827 2.40215 5.76805 1.46447C6.75782 0.526784 8.10025 0 9.5 0ZM9.5 2C9.08415 2 8.67237 2.0776 8.28817 2.22836C7.90397 2.37913 7.55488 2.6001 7.26083 2.87868C6.96678 3.15726 6.73352 3.48797 6.57438 3.85195C6.41524 4.21593 6.33333 4.60603 6.33333 5C6.33333 5.39397 6.41524 5.78407 6.57438 6.14805C6.73352 6.51203 6.96678 6.84274 7.26083 7.12132C7.55488 7.3999 7.90397 7.62087 8.28817 7.77164C8.67237 7.9224 9.08415 8 9.5 8C10.3399 8 11.1453 7.68393 11.7392 7.12132C12.333 6.55871 12.6667 5.79565 12.6667 5C12.6667 4.20435 12.333 3.44129 11.7392 2.87868C11.1453 2.31607 10.3399 2 9.5 2Z" fill="black"/>
</svg>
